<?xml version="1.0" standalone="no"?>
<!DOCTYPE svg PUBLIC "-//W3C//DTD SVG 20010904//EN"
 "http://www.w3.org/TR/2001/REC-SVG-20010904/DTD/svg10.dtd">
<svg version="1.0" xmlns="http://www.w3.org/2000/svg"
 width="300.000000pt" height="300.000000pt" viewBox="0 0 300.000000 300.000000"
 preserveAspectRatio="xMidYMid meet">
<metadata>
Created by potrace 1.10, written by Peter Selinger 2001-2011
</metadata>
<g transform="translate(0.000000,300.000000) scale(0.100000,-0.100000)"
fill="#30E7FF" stroke="none">
<path d="M1369 2091 c-26 -27 -29 -36 -29 -99 0 -85 -27 -135 -76 -140 -25 -2
-39 7 -94 64 -76 78 -98 89 -145 70 -43 -18 -59 -48 -52 -99 7 -54 41 -86 170
-162 144 -86 191 -126 223 -191 22 -46 26 -64 22 -115 -5 -63 -21 -89 -57 -89
-17 0 -115 99 -226 228 -110 130 -158 150 -216 93 -57 -57 -33 -128 63 -189
35 -22 97 -66 138 -99 41 -32 129 -100 195 -150 135 -102 185 -162 192 -227 5
-52 -7 -71 -39 -63 -24 6 -35 24 -72 110 -20 47 -68 77 -123 77 -50 0 -112 45
-194 141 -109 127 -123 139 -167 139 -32 0 -45 -6 -61 -26 -47 -60 -16 -127
87 -185 31 -17 104 -69 162 -114 58 -45 126 -96 153 -114 29 -20 47 -39 47
-51 0 -67 244 -102 384 -54 53 18 66 33 42 46 -25 14 -19 36 15 54 25 13 47
14 108 9 69 -6 79 -5 104 15 32 26 36 69 8 94 -16 15 -34 17 -102 14 -97 -4
-110 8 -50 46 23 15 49 43 61 66 25 49 83 84 175 105 107 25 150 55 161 110 7
37 -16 89 -45 105 -45 24 -79 12 -146 -50 -36 -33 -74 -60 -85 -60 -30 0 -66
41 -81 89 -15 52 -46 72 -66 45 -8 -11 -12 -30 -10 -44 3 -14 11 -53 18 -87
15 -77 5 -105 -62 -168 -36 -33 -56 -45 -79 -45 -70 0 -76 128 -12 263 42 89
95 138 195 178 139 55 197 87 208 116 20 54 -26 110 -81 97 -14 -3 -53 -33
-87 -66 -71 -68 -101 -74 -116 -23 -8 29 6 84 57 222 12 33 13 48 5 67 -26 57
-110 52 -128 -7 -5 -18 -12 -65 -16 -106 -7 -84 -36 -205 -60 -251 -23 -44
-63 -39 -88 10 -21 39 -19 132 4 266 15 84 3 126 -42 149 -40 21 -57 19 -90
-14z"/>
</g>
</svg>
