<?xml version="1.0" standalone="no"?>
<!DOCTYPE svg PUBLIC "-//W3C//DTD SVG 20010904//EN"
 "http://www.w3.org/TR/2001/REC-SVG-20010904/DTD/svg10.dtd">
<svg version="1.0" xmlns="http://www.w3.org/2000/svg"
 width="300.000000pt" height="300.000000pt" viewBox="0 0 300.000000 300.000000"
 preserveAspectRatio="xMidYMid meet">
<metadata>
Created by potrace 1.10, written by Peter Selinger 2001-2011
</metadata>
<g transform="translate(0.000000,300.000000) scale(0.100000,-0.100000)"
fill="#30E7FF" stroke="none">
<path d="M1349 2236 c-249 -52 -474 -255 -557 -503 -24 -70 -26 -93 -26 -228
0 -137 2 -157 27 -231 108 -323 459 -546 793 -505 184 22 331 95 464 230 146
147 204 292 204 506 -1 133 -16 209 -64 310 -94 198 -257 340 -465 405 -89 28
-278 36 -376 16z m350 -45 c239 -64 440 -264 500 -501 l18 -74 -56 -34 c-90
-56 -109 -63 -143 -60 l-33 3 -5 70 c-3 39 -8 75 -13 82 -4 6 2 35 13 63 37
95 22 165 -35 158 -28 -3 -30 -6 -36 -59 -3 -31 -10 -62 -14 -69 -5 -7 -12
-73 -16 -146 -8 -152 -29 -219 -73 -230 -54 -13 -58 17 -21 133 33 105 33 138
-3 157 -15 8 -34 26 -42 40 -15 30 -50 35 -71 10 -10 -13 -11 -36 -2 -122 10
-97 9 -203 -2 -259 -3 -12 -17 -35 -31 -52 -35 -42 -82 -43 -117 -1 -36 42
-69 136 -70 195 0 83 27 119 251 338 82 81 96 196 21 185 -26 -4 -36 -19 -44
-71 -9 -56 -102 -157 -145 -157 -5 0 -16 7 -24 16 -13 12 -16 41 -16 149 0 73
-3 140 -6 149 -16 42 -84 0 -84 -51 0 -33 -13 -28 -35 13 -10 19 -27 40 -37
45 -33 18 -78 -22 -78 -70 0 -10 21 -43 46 -73 57 -67 73 -103 85 -202 12 -94
5 -131 -27 -152 -22 -15 -26 -15 -47 -1 -29 19 -63 108 -82 216 -15 86 -44
155 -70 165 -75 28 -112 -55 -60 -132 30 -44 32 -73 6 -96 -16 -15 -35 -17
-108 -14 l-88 3 -3 -27 c-4 -36 25 -54 113 -68 127 -21 142 -27 166 -69 14
-25 38 -48 67 -62 30 -16 49 -34 59 -57 16 -38 9 -54 -36 -95 -37 -33 -40 -61
-7 -82 18 -12 36 -15 69 -10 37 6 48 3 70 -17 66 -57 32 -138 -58 -138 -55 0
-113 27 -149 70 -36 43 -41 71 -26 151 15 79 12 90 -46 166 -47 62 -59 69 -90
49 -34 -23 -32 -69 6 -125 22 -32 28 -50 23 -70 -25 -107 -91 -129 -171 -57
-20 18 -47 38 -59 44 -35 19 -47 73 -40 188 10 182 68 314 198 449 108 112
219 175 371 210 81 19 238 12 337 -14z m526 -738 c-16 -179 -112 -369 -243
-478 -89 -74 -225 -141 -325 -160 -118 -22 -119 -22 -112 23 10 55 52 137 77
150 13 6 55 18 94 26 125 25 294 107 311 151 10 28 -6 64 -32 71 -34 8 -82
-13 -131 -58 -55 -51 -117 -78 -182 -78 -97 0 -75 46 66 142 40 27 102 75 136
107 64 58 114 81 175 81 41 0 77 19 120 64 19 20 39 36 44 36 6 0 6 -32 2 -77z
m-1145 -338 c45 -41 67 -55 90 -55 43 0 99 -26 138 -63 44 -42 59 -73 68 -137
6 -48 5 -52 -12 -47 -10 3 -39 11 -64 17 -97 25 -201 90 -295 185 -49 49 -98
105 -108 123 l-18 32 71 0 70 0 60 -55z"/>
</g>
</svg>
