<svg version="1.0" xmlns="http://www.w3.org/2000/svg"
 width="300.000000pt" height="300.000000pt" viewBox="0 0 300.000000 300.000000"
 preserveAspectRatio="xMidYMid meet">
<g transform="translate(0.000000,300.000000) scale(0.100000,-0.100000)"
fill="#30E7FF" stroke="none">
<path d="M970 2143 c-22 -20 -33 -40 -37 -68 -6 -46 -5 -47 166 -280 107 -146
148 -216 176 -302 30 -91 -21 -131 -65 -50 -55 99 -133 199 -167 214 -70 29
-133 -18 -133 -99 0 -38 5 -46 52 -88 97 -84 136 -128 175 -197 36 -64 38 -73
39 -158 1 -108 23 -167 87 -234 56 -58 107 -81 182 -81 149 0 256 107 261 258
1 65 5 78 31 110 52 64 72 73 205 92 129 19 180 36 198 69 18 34 11 78 -17
111 -26 31 -27 32 -90 25 -58 -6 -63 -5 -63 13 0 34 45 70 168 131 66 33 128
71 136 83 50 71 -32 180 -112 151 -11 -5 -53 -36 -91 -71 -38 -34 -72 -59 -75
-54 -2 4 4 64 14 132 26 167 26 176 -9 211 -51 51 -133 31 -159 -38 -6 -15
-15 -118 -22 -228 -14 -248 -25 -333 -48 -365 -10 -14 -47 -44 -83 -67 -35
-23 -77 -52 -93 -64 -43 -34 -76 -113 -76 -182 0 -48 -4 -62 -25 -82 -41 -42
-92 -33 -126 21 -16 26 -21 51 -21 103 -1 131 72 240 241 360 110 78 119 87
127 127 4 21 -1 39 -18 64 -56 83 -153 57 -188 -51 -19 -56 -46 -89 -76 -89
-20 0 -24 5 -24 33 0 47 29 356 38 402 17 87 -33 152 -107 141 -66 -10 -75
-31 -81 -174 -7 -169 -19 -169 -80 -2 -56 153 -63 166 -100 185 -43 22 -76 18
-110 -12z"/>
</g>
</svg>
