<?xml version="1.0" standalone="no"?>
<!DOCTYPE svg PUBLIC "-//W3C//DTD SVG 20010904//EN"
 "http://www.w3.org/TR/2001/REC-SVG-20010904/DTD/svg10.dtd">
<svg version="1.0" xmlns="http://www.w3.org/2000/svg"
 width="300.000000pt" height="300.000000pt" viewBox="0 0 300.000000 300.000000"
 preserveAspectRatio="xMidYMid meet">
<metadata>
Created by potrace 1.10, written by Peter Selinger 2001-2011
</metadata>
<g transform="translate(0.000000,300.000000) scale(0.100000,-0.100000)"
fill="#30E7FF" stroke="none">
<path d="M1769 2125 c-56 -30 -54 -50 22 -347 95 -373 92 -359 79 -407 -19
-70 -96 -95 -120 -38 -9 19 -89 342 -150 603 -25 106 -47 135 -105 137 -29 1
-43 -5 -61 -27 -28 -32 -30 -53 -9 -83 18 -26 135 -392 135 -422 0 -26 -34
-45 -58 -32 -21 11 -111 106 -133 140 -34 54 -119 18 -119 -51 0 -33 2 -36
145 -149 137 -110 199 -174 230 -239 21 -45 26 -66 21 -93 -7 -39 -55 -87 -87
-87 -27 0 -93 63 -114 109 -11 26 -35 51 -69 74 -89 59 -153 124 -172 173 -16
43 -17 65 -5 308 14 287 12 305 -40 332 -38 19 -54 18 -84 -9 -31 -27 -32 -28
-15 -219 14 -161 11 -178 -36 -178 -19 0 -36 16 -72 66 -78 110 -85 117 -122
117 -40 0 -70 -32 -70 -74 0 -24 23 -53 121 -155 117 -121 137 -154 98 -162
-9 -2 -38 15 -63 37 -45 39 -61 46 -96 42 -41 -5 -66 -86 -37 -124 6 -9 80
-40 162 -68 148 -50 190 -75 178 -104 -8 -23 -39 -18 -143 20 -111 42 -135 40
-156 -12 -19 -43 -6 -84 31 -101 14 -6 102 -21 197 -32 297 -36 338 -55 373
-171 29 -94 89 -131 155 -94 14 7 68 62 120 122 56 63 111 116 133 126 29 15
72 20 206 26 145 5 172 9 190 25 30 27 34 51 16 86 -19 38 -47 39 -166 8 -143
-37 -155 -9 -47 114 40 46 114 126 164 178 124 129 134 151 89 195 -15 15 -36
25 -54 25 -25 0 -40 -14 -108 -99 -43 -55 -84 -102 -92 -106 -8 -3 -21 0 -28
8 -11 11 -5 39 36 173 103 336 107 353 90 382 -29 53 -110 54 -136 2 -8 -15
-13 -66 -13 -131 0 -112 -11 -144 -46 -137 -22 4 -29 36 -40 183 -7 91 -10
102 -35 127 -31 31 -51 34 -90 13z"/>
</g>
</svg>
